<svg viewBox="0 0 2000 1100" xmlns="http://www.w3.org/2000/svg">
  <!-- Title -->
  <text x="1000" y="35" font-size="24" font-weight="bold" text-anchor="middle" fill="#2C3E50">Lereta Data Modernization - Network Architecture</text>
  <text x="1000" y="60" font-size="14" text-anchor="middle" fill="#7F8C8D">System Interconnections and Data Flow</text>
  
  <!-- Definitions -->
  <defs>
    <marker id="arrow" markerWidth="10" markerHeight="10" refX="9" refY="3" orient="auto">
      <polygon points="0 0, 10 3, 0 6" fill="#3498DB"/>
    </marker>
    <marker id="arrowGreen" markerWidth="10" markerHeight="10" refX="9" refY="3" orient="auto">
      <polygon points="0 0, 10 3, 0 6" fill="#27AE60"/>
    </marker>
    <marker id="arrowOrange" markerWidth="10" markerHeight="10" refX="9" refY="3" orient="auto">
      <polygon points="0 0, 10 3, 0 6" fill="#E67E22"/>
    </marker>
    <marker id="arrowPurple" markerWidth="10" markerHeight="10" refX="9" refY="3" orient="auto">
      <polygon points="0 0, 10 3, 0 6" fill="#8B008B"/>
    </marker>
  </defs>
  
  <!-- Background sections -->
  <rect x="50" y="90" width="300" height="550" fill="#ECF0F1" stroke="#34495E" stroke-width="2" rx="8"/>
  <text x="200" y="120" font-size="15" font-weight="bold" text-anchor="middle" fill="#2C3E50">SOURCE SYSTEMS</text>
  
  <rect x="400" y="90" width="300" height="550" fill="#FFF3E0" stroke="#E67E22" stroke-width="2" rx="8"/>
  <text x="550" y="120" font-size="15" font-weight="bold" text-anchor="middle" fill="#E65100">INTEGRATION</text>
  
  <rect x="750" y="90" width="500" height="550" fill="#E1F5FE" stroke="#29B5E8" stroke-width="3" rx="8"/>
  <text x="1000" y="120" font-size="15" font-weight="bold" text-anchor="middle" fill="#1565C0">SNOWFLAKE PLATFORM</text>
  
  <rect x="1300" y="90" width="320" height="550" fill="#F3E5F5" stroke="#8B008B" stroke-width="2" rx="8"/>
  <text x="1460" y="120" font-size="15" font-weight="bold" text-anchor="middle" fill="#6A1B9A">CONSUMPTION</text>
  
  <rect x="1670" y="90" width="280" height="550" fill="#FFEBEE" stroke="#E74C3C" stroke-width="2" rx="8"/>
  <text x="1810" y="120" font-size="15" font-weight="bold" text-anchor="middle" fill="#C62828">END USERS</text>
  
  <!-- SOURCE SYSTEMS -->
  <rect x="80" y="160" width="240" height="75" fill="#1E3A8A" stroke="#1E3A8A" stroke-width="2" rx="6"/>
  <text x="200" y="192" font-size="16" font-weight="bold" text-anchor="middle" fill="white">IBM Mainframe</text>
  <text x="200" y="212" font-size="12" text-anchor="middle" fill="white">Database</text>
  <text x="200" y="227" font-size="10" text-anchor="middle" fill="#E0E0E0">→ Linux Containers</text>
  
  <rect x="80" y="255" width="240" height="70" fill="#CC2927" stroke="#CC2927" stroke-width="2" rx="6"/>
  <text x="200" y="285" font-size="16" font-weight="bold" text-anchor="middle" fill="white">SQL Server</text>
  <text x="200" y="307" font-size="12" text-anchor="middle" fill="white">On-Premises</text>
  
  <rect x="80" y="345" width="240" height="80" fill="#0078D4" stroke="#0078D4" stroke-width="2" rx="6"/>
  <text x="200" y="375" font-size="16" font-weight="bold" text-anchor="middle" fill="white">Azure SQL</text>
  <text x="200" y="395" font-size="11" text-anchor="middle" fill="white">Elevate Platform</text>
  <text x="200" y="412" font-size="11" text-anchor="middle" fill="white">LeretaNet</text>
  
  <rect x="80" y="445" width="240" height="70" fill="#F80000" stroke="#F80000" stroke-width="2" rx="6"/>
  <text x="200" y="475" font-size="16" font-weight="bold" text-anchor="middle" fill="white">Oracle Database</text>
  <text x="200" y="497" font-size="12" text-anchor="middle" fill="white">On-Premises (Limited)</text>
  
  <!-- INTEGRATION LAYER -->
  <rect x="430" y="160" width="240" height="75" fill="white" stroke="#E67E22" stroke-width="2" rx="6"/>
  <text x="550" y="190" font-size="15" font-weight="bold" text-anchor="middle">SQL Gateway</text>
  <text x="550" y="210" font-size="12" text-anchor="middle">Software AG</text>
  <text x="550" y="226" font-size="10" text-anchor="middle" fill="#7F8C8D">Mainframe Extraction</text>
  
  <rect x="430" y="255" width="240" height="110" fill="white" stroke="#E67E22" stroke-width="2" rx="6"/>
  <text x="550" y="285" font-size="15" font-weight="bold" text-anchor="middle">SSIS</text>
  <text x="550" y="305" font-size="12" text-anchor="middle">Current ETL</text>
  <line x1="440" y1="323" x2="660" y2="323" stroke="#E67E22" stroke-width="1" stroke-dasharray="4,4"/>
  <text x="550" y="343" font-size="15" font-weight="bold" text-anchor="middle" fill="#29B5E8">OpenFlow</text>
  <text x="550" y="360" font-size="12" text-anchor="middle" fill="#29B5E8">Future Snowflake CDC</text>
  
  <rect x="430" y="385" width="240" height="80" fill="white" stroke="#E67E22" stroke-width="2" rx="6"/>
  <text x="550" y="415" font-size="15" font-weight="bold" text-anchor="middle">Azure Cloud Storage</text>
  <text x="550" y="435" font-size="12" text-anchor="middle">Blob / ADLS</text>
  <text x="550" y="453" font-size="10" text-anchor="middle" fill="#7F8C8D">Iceberg Tables</text>
  
  <!-- SNOWFLAKE PLATFORM -->
  <rect x="780" y="155" width="440" height="75" fill="#29B5E8" stroke="#1565C0" stroke-width="2" rx="6"/>
  <text x="1000" y="188" font-size="20" font-weight="bold" text-anchor="middle" fill="white">❄ SNOWFLAKE</text>
  <text x="1000" y="213" font-size="13" text-anchor="middle" fill="white">Business Critical Edition</text>
  
  <!-- Medallion Architecture -->
  <text x="1000" y="255" font-size="14" font-weight="bold" text-anchor="middle" fill="#0277BD">Medallion Architecture</text>
  
  <rect x="820" y="265" width="100" height="55" fill="#FFE082" stroke="#F57C00" stroke-width="2" rx="5"/>
  <text x="870" y="290" font-size="13" font-weight="bold" text-anchor="middle">Bronze</text>
  <text x="870" y="307" font-size="10" text-anchor="middle">Raw Data</text>
  
  <rect x="950" y="265" width="100" height="55" fill="#B0BEC5" stroke="#546E7A" stroke-width="2" rx="5"/>
  <text x="1000" y="290" font-size="13" font-weight="bold" text-anchor="middle">Silver</text>
  <text x="1000" y="307" font-size="10" text-anchor="middle">Cleansed</text>
  
  <rect x="1080" y="265" width="100" height="55" fill="#FFD54F" stroke="#F9A825" stroke-width="2" rx="5"/>
  <text x="1130" y="290" font-size="13" font-weight="bold" text-anchor="middle">Gold</text>
  <text x="1130" y="307" font-size="10" text-anchor="middle">Analytics</text>
  
  <!-- Compute Warehouses -->
  <text x="1000" y="345" font-size="13" font-weight="bold" text-anchor="middle" fill="#0277BD">Compute Warehouses</text>
  
  <rect x="820" y="355" width="100" height="38" fill="#E1F5FE" stroke="#0288D1" stroke-width="1.5" rx="4"/>
  <text x="870" y="373" font-size="10" font-weight="bold" text-anchor="middle">Data Loading</text>
  <text x="870" y="386" font-size="9" text-anchor="middle">(Shared)</text>
  
  <rect x="950" y="355" width="100" height="38" fill="#E1F5FE" stroke="#0288D1" stroke-width="1.5" rx="4"/>
  <text x="1000" y="373" font-size="10" font-weight="bold" text-anchor="middle">Transform</text>
  <text x="1000" y="386" font-size="9" text-anchor="middle">(Shared)</text>
  
  <rect x="1080" y="355" width="100" height="38" fill="#E1F5FE" stroke="#0288D1" stroke-width="1.5" rx="4"/>
  <text x="1130" y="377" font-size="10" font-weight="bold" text-anchor="middle">Accounting</text>
  
  <rect x="820" y="403" width="100" height="38" fill="#E1F5FE" stroke="#0288D1" stroke-width="1.5" rx="4"/>
  <text x="870" y="425" font-size="10" font-weight="bold" text-anchor="middle">Operations</text>
  
  <rect x="950" y="403" width="100" height="38" fill="#E1F5FE" stroke="#0288D1" stroke-width="1.5" rx="4"/>
  <text x="1000" y="420" font-size="10" font-weight="bold" text-anchor="middle">Client Reports</text>
  <text x="1000" y="433" font-size="9" text-anchor="middle">(External)</text>
  
  <rect x="1080" y="403" width="100" height="38" fill="#E1F5FE" stroke="#0288D1" stroke-width="1.5" rx="4"/>
  <text x="1130" y="420" font-size="10" font-weight="bold" text-anchor="middle">Dev/Test</text>
  <text x="1130" y="433" font-size="9" text-anchor="middle">(Clones)</text>
  
  <!-- Features Box -->
  <rect x="780" y="460" width="440" height="85" fill="#B3E5FC" stroke="#0277BD" stroke-width="2" rx="5"/>
  <text x="1000" y="483" font-size="12" font-weight="bold" text-anchor="middle" fill="#01579B">Core Features</text>
  <text x="1000" y="502" font-size="10" text-anchor="middle">Dynamic Tables • Streams • Tasks • Time Travel • Zero-Copy Cloning</text>
  <text x="1000" y="520" font-size="10" text-anchor="middle">Cortex AI • ML Models • RBAC • Dynamic Masking • Data Lineage</text>
  <text x="1000" y="538" font-size="10" text-anchor="middle">Tags • Audit Logging • Row Access Policies</text>
  
  <!-- Storage Stats -->
  <rect x="780" y="560" width="440" height="50" fill="#81D4FA" stroke="#0277BD" stroke-width="2" rx="5"/>
  <text x="1000" y="583" font-size="11" font-weight="bold" text-anchor="middle" fill="#01579B">Storage: ~32TB (5:1 compression) • Cost: ~$8,800/year</text>
  <text x="1000" y="600" font-size="10" text-anchor="middle" fill="#01579B">Original: 160TB → Compressed: 32TB</text>
  
  <!-- GOVERNANCE -->
  <rect x="1330" y="680" width="260" height="85" fill="#FFF9E6" stroke="#FF9800" stroke-width="2" rx="6"/>
  <text x="1460" y="710" font-size="15" font-weight="bold" text-anchor="middle">Atacama</text>
  <text x="1460" y="730" font-size="11" text-anchor="middle">Data Quality &amp; Governance</text>
  <text x="1460" y="748" font-size="10" text-anchor="middle">Catalog • Glossary • CDEs • DQ Rules</text>
  
  <!-- CONSUMPTION LAYER -->
  <rect x="1330" y="160" width="260" height="65" fill="#F2C811" stroke="#8B008B" stroke-width="2" rx="6"/>
  <text x="1460" y="188" font-size="15" font-weight="bold" text-anchor="middle">Power BI</text>
  <text x="1460" y="208" font-size="11" text-anchor="middle">Live Query • Embedded iFrames</text>
  
  <rect x="1330" y="245" width="260" height="75" fill="#B3E5FC" stroke="#8B008B" stroke-width="2" rx="6"/>
  <text x="1460" y="273" font-size="14" font-weight="bold" text-anchor="middle">Snowflake Intelligence</text>
  <text x="1460" y="293" font-size="11" text-anchor="middle">AI Agents / Cortex</text>
  <text x="1460" y="310" font-size="10" text-anchor="middle" fill="#7F8C8D">Natural Language Queries</text>
  
  <rect x="1330" y="340" width="260" height="65" fill="#E1BEE7" stroke="#8B008B" stroke-width="2" rx="6"/>
  <text x="1460" y="368" font-size="15" font-weight="bold" text-anchor="middle">Sigma Analytics</text>
  <text x="1460" y="388" font-size="11" text-anchor="middle">Excel-like Interface</text>
  
  <rect x="1330" y="425" width="260" height="75" fill="#E0E0E0" stroke="#8B008B" stroke-width="2" rx="6"/>
  <text x="1460" y="453" font-size="14" font-weight="bold" text-anchor="middle">External APIs</text>
  <text x="1460" y="473" font-size="11" text-anchor="middle">Microservices</text>
  <text x="1460" y="490" font-size="11" text-anchor="middle">Client Portals (iFrames)</text>
  
  <!-- END USERS -->
  <ellipse cx="1810" cy="370" rx="110" ry="145" fill="#FFCDD2" stroke="#E74C3C" stroke-width="3"/>
  <text x="1810" y="295" font-size="16" font-weight="bold" text-anchor="middle" fill="#C62828">👥 End Users</text>
  <text x="1810" y="335" font-size="13" text-anchor="middle">Management</text>
  <text x="1810" y="360" font-size="13" text-anchor="middle">Accounting</text>
  <text x="1810" y="385" font-size="13" text-anchor="middle">Operations</text>
  <text x="1810" y="410" font-size="13" text-anchor="middle">Developers</text>
  <text x="1810" y="435" font-size="13" text-anchor="middle">Data Scientists</text>
  <text x="1810" y="465" font-size="13" font-weight="bold" text-anchor="middle">External Clients</text>
  <text x="1810" y="485" font-size="11" text-anchor="middle" fill="#7F8C8D">(20-25 customers)</text>
  
  <!-- PARTNERS -->
  <rect x="80" y="680" width="280" height="85" fill="#E8F5E9" stroke="#4CAF50" stroke-width="2" rx="6"/>
  <text x="220" y="710" font-size="15" font-weight="bold" text-anchor="middle">KPMG</text>
  <text x="220" y="730" font-size="11" text-anchor="middle">Migration Partner</text>
  <text x="220" y="748" font-size="10" text-anchor="middle">$1.02M / 20-22 weeks</text>
  
  <rect x="420" y="680" width="280" height="85" fill="#E3F2FD" stroke="#4CAF50" stroke-width="2" rx="6"/>
  <text x="560" y="710" font-size="14" font-weight="bold" text-anchor="middle">Snowflake Professional Services</text>
  <text x="560" y="730" font-size="11" text-anchor="middle">RSA • Migration Specialist</text>
  <text x="560" y="748" font-size="10" text-anchor="middle">Training • Enablement</text>
  
  <!-- CONNECTIONS -->
  <!-- Sources to Integration -->
  <line x1="320" y1="197" x2="430" y2="197" stroke="#3498DB" stroke-width="3" marker-end="url(#arrow)"/>
  <line x1="320" y1="290" x2="430" y2="310" stroke="#3498DB" stroke-width="3" marker-end="url(#arrow)"/>
  <line x1="320" y1="385" x2="430" y2="315" stroke="#3498DB" stroke-width="3" marker-end="url(#arrow)"/>
  <line x1="320" y1="480" x2="430" y2="320" stroke="#3498DB" stroke-width="3" marker-end="url(#arrow)"/>
  
  <!-- Integration to Storage -->
  <line x1="550" y1="235" x2="550" y2="385" stroke="#E67E22" stroke-width="2" stroke-dasharray="5,5" marker-end="url(#arrowOrange)"/>
  
  <!-- Integration to Snowflake -->
  <line x1="670" y1="197" x2="780" y2="280" stroke="#3498DB" stroke-width="4" marker-end="url(#arrow)"/>
  <line x1="670" y1="310" x2="780" y2="330" stroke="#3498DB" stroke-width="4" marker-end="url(#arrow)"/>
  <line x1="670" y1="425" x2="780" y2="380" stroke="#3498DB" stroke-width="4" marker-end="url(#arrow)"/>
  
  <!-- Snowflake to Atacama (bidirectional) -->
  <line x1="1220" y1="620" x2="1380" y2="680" stroke="#FF9800" stroke-width="2.5" stroke-dasharray="5,5"/>
  <line x1="1380" y1="690" x2="1220" y2="620" stroke="#FF9800" stroke-width="2.5" stroke-dasharray="5,5"/>
  
  <!-- Snowflake to Consumption -->
  <line x1="1250" y1="220" x2="1330" y2="192" stroke="#27AE60" stroke-width="3.5" marker-end="url(#arrowGreen)"/>
  <line x1="1250" y1="290" x2="1330" y2="282" stroke="#27AE60" stroke-width="3.5" marker-end="url(#arrowGreen)"/>
  <line x1="1250" y1="360" x2="1330" y2="377" stroke="#27AE60" stroke-width="3.5" marker-end="url(#arrowGreen)"/>
  <line x1="1250" y1="430" x2="1330" y2="462" stroke="#27AE60" stroke-width="3.5" marker-end="url(#arrowGreen)"/>
  
  <!-- Consumption to Users -->
  <line x1="1590" y1="192" x2="1700" y2="300" stroke="#8B008B" stroke-width="3" marker-end="url(#arrowPurple)"/>
  <line x1="1590" y1="282" x2="1700" y2="340" stroke="#8B008B" stroke-width="3" marker-end="url(#arrowPurple)"/>
  <line x1="1590" y1="377" x2="1700" y2="390" stroke="#8B008B" stroke-width="3" marker-end="url(#arrowPurple)"/>
  <line x1="1590" y1="462" x2="1700" y2="440" stroke="#8B008B" stroke-width="3" marker-end="url(#arrowPurple)"/>
  
  <!-- Partners to Snowflake -->
  <line x1="220" y1="680" x2="900" y2="610" stroke="#4CAF50" stroke-width="2" stroke-dasharray="5,5"/>
  <line x1="560" y1="680" x2="1100" y2="610" stroke="#4CAF50" stroke-width="2" stroke-dasharray="5,5"/>
  
  <!-- Key Stats Box -->
  <rect x="780" y="680" width="500" height="85" fill="#FFFEF7" stroke="#34495E" stroke-width="2" rx="6"/>
  <text x="1030" y="705" font-size="14" font-weight="bold" text-anchor="middle" fill="#2C3E50">📊 Key Metrics</text>
  
  <text x="810" y="730" font-size="11" font-weight="bold" fill="#2C3E50">Current:</text>
  <text x="810" y="748" font-size="10">160TB • 13.7B records • 500+ reports</text>
  
  <text x="1030" y="730" font-size="11" font-weight="bold" fill="#2C3E50">Snowflake:</text>
  <text x="1030" y="748" font-size="10">32TB • $8.8K/yr storage</text>
  
  <text x="1190" y="730" font-size="11" font-weight="bold" fill="#2C3E50">Timeline:</text>
  <text x="1190" y="748" font-size="10">Dec 2025 - May 2026</text>
  
  <!-- Legend -->
  <rect x="1670" y="680" width="280" height="125" fill="#F8F9FA" stroke="#34495E" stroke-width="2" rx="6"/>
  <text x="1810" y="705" font-size="13" font-weight="bold" text-anchor="middle" fill="#2C3E50">Legend</text>
  
  <line x1="1690" y1="725" x2="1750" y2="725" stroke="#3498DB" stroke-width="3" marker-end="url(#arrow)"/>
  <text x="1760" y="730" font-size="10">Data Ingestion</text>
  
  <line x1="1690" y1="745" x2="1750" y2="745" stroke="#27AE60" stroke-width="3" marker-end="url(#arrowGreen)"/>
  <text x="1760" y="750" font-size="10">Analytics Flow</text>
  
  <line x1="1690" y1="765" x2="1750" y2="765" stroke="#8B008B" stroke-width="3" marker-end="url(#arrowPurple)"/>
  <text x="1760" y="770" font-size="10">User Access</text>
  
  <line x1="1690" y1="785" x2="1750" y2="785" stroke="#FF9800" stroke-width="2" stroke-dasharray="5,5"/>
  <text x="1760" y="790" font-size="10">Governance</text>
  
  <!-- Footer -->
  <text x="1000" y="1080" font-size="12" font-weight="bold" text-anchor="middle" fill="#2C3E50">Lereta Data Modernization Initiative | November 2025 | Powered by Snowflake</text>
</svg>
